# xmcd CD database file
#
# Track frame offsets:
#	150
#	18517
#	33760
#	52007
#	65065
#	77327
#	84325
#	95882
#	114020
#	137990
#	161565
#	193375
#
# Disc length: 2686 seconds
#
# Revision: 1
# Processed by: cddbd v1.5.2PL0 Copyright (c) Steve Scherf et al.
# Submitted via: CDex 1.70beta2
#
DISCID=9c0a7c0c
DTITLE=on button down - on button down
DYEAR=2002
DGENRE=Alternative
TTITLE0=遠くで
TTITLE1=貴方から遠くへ
TTITLE2=スマイル
TTITLE3=Theme of PIN-BALL
TTITLE4=Theme of GAME-OVER  (LISTENING - 69)
TTITLE5=Endless Summer Recordings  (LISTENING - 96)
TTITLE6=it
TTITLE7=無限コース
TTITLE8=LISTENING - 99
TTITLE9=ディスコ浜辺
TTITLE10=ミセバヤ
TTITLE11=opening  (LISTENING - 66)
EXTD=YEAR: 2002
EXTT0=
EXTT1=
EXTT2=
EXTT3=
EXTT4=
EXTT5=
EXTT6=
EXTT7=
EXTT8=
EXTT9=
EXTT10=
EXTT11=
PLAYORDER=
